<svg width="446" height="168" viewBox="0 0 446 168" fill="none" xmlns="http://www.w3.org/2000/svg">
<path d="M34.28 41.92V70H27.44V53.16L21.16 70H15.64L9.32 53.12V70H2.48V41.92H10.56L18.44 61.36L26.24 41.92H34.28ZM42.6388 45.36C41.4388 45.36 40.4521 45.0133 39.6788 44.32C38.9321 43.6 38.5588 42.72 38.5588 41.68C38.5588 40.6133 38.9321 39.7333 39.6788 39.04C40.4521 38.32 41.4388 37.96 42.6388 37.96C43.8121 37.96 44.7721 38.32 45.5188 39.04C46.2921 39.7333 46.6788 40.6133 46.6788 41.68C46.6788 42.72 46.2921 43.6 45.5188 44.32C44.7721 45.0133 43.8121 45.36 42.6388 45.36ZM46.0388 47.68V70H39.1988V47.68H46.0388ZM64.6356 70L57.8356 60.64V70H50.9956V40.4H57.8356V56.76L64.5956 47.68H73.0356L63.7556 58.88L73.1156 70H64.6356ZM96.7622 58.48C96.7622 59.12 96.7222 59.7867 96.6422 60.48H81.1622C81.2689 61.8667 81.7089 62.9333 82.4822 63.68C83.2822 64.4 84.2555 64.76 85.4022 64.76C87.1089 64.76 88.2955 64.04 88.9622 62.6H96.2422C95.8689 64.0667 95.1889 65.3867 94.2022 66.56C93.2422 67.7333 92.0289 68.6533 90.5622 69.32C89.0955 69.9867 87.4555 70.32 85.6422 70.32C83.4555 70.32 81.5089 69.8533 79.8022 68.92C78.0955 67.9867 76.7622 66.6533 75.8022 64.92C74.8422 63.1867 74.3622 61.16 74.3622 58.84C74.3622 56.52 74.8289 54.4933 75.7622 52.76C76.7222 51.0267 78.0555 49.6933 79.7622 48.76C81.4689 47.8267 83.4289 47.36 85.6422 47.36C87.8022 47.36 89.7222 47.8133 91.4022 48.72C93.0822 49.6267 94.3889 50.92 95.3222 52.6C96.2822 54.28 96.7622 56.24 96.7622 58.48ZM89.7622 56.68C89.7622 55.5067 89.3622 54.5733 88.5622 53.88C87.7622 53.1867 86.7622 52.84 85.5622 52.84C84.4155 52.84 83.4422 53.1733 82.6422 53.84C81.8689 54.5067 81.3889 55.4533 81.2022 56.68H89.7622ZM101.931 41.92H108.931L104.451 52.64H99.8506L101.931 41.92ZM122.029 70.32C120.082 70.32 118.349 69.9867 116.829 69.32C115.309 68.6533 114.109 67.7467 113.229 66.6C112.349 65.4267 111.855 64.12 111.749 62.68H118.509C118.589 63.4533 118.949 64.08 119.589 64.56C120.229 65.04 121.015 65.28 121.949 65.28C122.802 65.28 123.455 65.12 123.909 64.8C124.389 64.4533 124.629 64.0133 124.629 63.48C124.629 62.84 124.295 62.3733 123.629 62.08C122.962 61.76 121.882 61.4133 120.389 61.04C118.789 60.6667 117.455 60.28 116.389 59.88C115.322 59.4533 114.402 58.8 113.629 57.92C112.855 57.0133 112.469 55.8 112.469 54.28C112.469 53 112.815 51.84 113.509 50.8C114.229 49.7333 115.269 48.8933 116.629 48.28C118.015 47.6667 119.655 47.36 121.549 47.36C124.349 47.36 126.549 48.0533 128.149 49.44C129.775 50.8267 130.709 52.6667 130.949 54.96H124.629C124.522 54.1867 124.175 53.5733 123.589 53.12C123.029 52.6667 122.282 52.44 121.349 52.44C120.549 52.44 119.935 52.6 119.509 52.92C119.082 53.2133 118.869 53.6267 118.869 54.16C118.869 54.8 119.202 55.28 119.869 55.6C120.562 55.92 121.629 56.24 123.069 56.56C124.722 56.9867 126.069 57.4133 127.109 57.84C128.149 58.24 129.055 58.9067 129.829 59.84C130.629 60.7467 131.042 61.9733 131.069 63.52C131.069 64.8267 130.695 66 129.949 67.04C129.229 68.0533 128.175 68.8533 126.789 69.44C125.429 70.0267 123.842 70.32 122.029 70.32ZM154.93 53.36H151.25V70H144.41V53.36H141.93V47.68H144.41V47.04C144.41 44.2933 145.197 42.2133 146.77 40.8C148.343 39.36 150.65 38.64 153.69 38.64C154.197 38.64 154.57 38.6533 154.81 38.68V44.48C153.503 44.4 152.583 44.5867 152.05 45.04C151.517 45.4933 151.25 46.3067 151.25 47.48V47.68H154.93V53.36ZM156.784 58.8C156.784 56.5067 157.211 54.4933 158.064 52.76C158.944 51.0267 160.131 49.6933 161.624 48.76C163.117 47.8267 164.784 47.36 166.624 47.36C168.197 47.36 169.571 47.68 170.744 48.32C171.944 48.96 172.864 49.8 173.504 50.84V47.68H180.344V70H173.504V66.84C172.837 67.88 171.904 68.72 170.704 69.36C169.531 70 168.157 70.32 166.584 70.32C164.771 70.32 163.117 69.8533 161.624 68.92C160.131 67.96 158.944 66.6133 158.064 64.88C157.211 63.12 156.784 61.0933 156.784 58.8ZM173.504 58.84C173.504 57.1333 173.024 55.7867 172.064 54.8C171.131 53.8133 169.984 53.32 168.624 53.32C167.264 53.32 166.104 53.8133 165.144 54.8C164.211 55.76 163.744 57.0933 163.744 58.8C163.744 60.5067 164.211 61.8667 165.144 62.88C166.104 63.8667 167.264 64.36 168.624 64.36C169.984 64.36 171.131 63.8667 172.064 62.88C173.024 61.8933 173.504 60.5467 173.504 58.84ZM213.773 47.44C216.546 47.44 218.746 48.28 220.373 49.96C222.026 51.64 222.853 53.9733 222.853 56.96V70H216.053V57.88C216.053 56.44 215.666 55.3333 214.893 54.56C214.146 53.76 213.106 53.36 211.773 53.36C210.439 53.36 209.386 53.76 208.613 54.56C207.866 55.3333 207.493 56.44 207.493 57.88V70H200.693V57.88C200.693 56.44 200.306 55.3333 199.533 54.56C198.786 53.76 197.746 53.36 196.413 53.36C195.079 53.36 194.026 53.76 193.253 54.56C192.506 55.3333 192.133 56.44 192.133 57.88V70H185.293V47.68H192.133V50.48C192.826 49.5467 193.733 48.8133 194.853 48.28C195.973 47.72 197.239 47.44 198.653 47.44C200.333 47.44 201.826 47.8 203.133 48.52C204.466 49.24 205.506 50.2667 206.253 51.6C207.026 50.3733 208.079 49.3733 209.413 48.6C210.746 47.8267 212.199 47.44 213.773 47.44ZM237.796 70.32C235.61 70.32 233.636 69.8533 231.876 68.92C230.143 67.9867 228.77 66.6533 227.756 64.92C226.77 63.1867 226.276 61.16 226.276 58.84C226.276 56.5467 226.783 54.5333 227.796 52.8C228.81 51.04 230.196 49.6933 231.956 48.76C233.716 47.8267 235.69 47.36 237.876 47.36C240.063 47.36 242.036 47.8267 243.796 48.76C245.556 49.6933 246.943 51.04 247.956 52.8C248.97 54.5333 249.476 56.5467 249.476 58.84C249.476 61.1333 248.956 63.16 247.916 64.92C246.903 66.6533 245.503 67.9867 243.716 68.92C241.956 69.8533 239.983 70.32 237.796 70.32ZM237.796 64.4C239.103 64.4 240.21 63.92 241.116 62.96C242.05 62 242.516 60.6267 242.516 58.84C242.516 57.0533 242.063 55.68 241.156 54.72C240.276 53.76 239.183 53.28 237.876 53.28C236.543 53.28 235.436 53.76 234.556 54.72C233.676 55.6533 233.236 57.0267 233.236 58.84C233.236 60.6267 233.663 62 234.516 62.96C235.396 63.92 236.49 64.4 237.796 64.4ZM275.145 47.68V70H268.305V66.96C267.612 67.9467 266.665 68.7467 265.465 69.36C264.292 69.9467 262.985 70.24 261.545 70.24C259.838 70.24 258.332 69.8667 257.025 69.12C255.718 68.3467 254.705 67.24 253.985 65.8C253.265 64.36 252.905 62.6667 252.905 60.72V47.68H259.705V59.8C259.705 61.2933 260.092 62.4533 260.865 63.28C261.638 64.1067 262.678 64.52 263.985 64.52C265.318 64.52 266.372 64.1067 267.145 63.28C267.918 62.4533 268.305 61.2933 268.305 59.8V47.68H275.145ZM289.138 70.32C287.191 70.32 285.458 69.9867 283.938 69.32C282.418 68.6533 281.218 67.7467 280.338 66.6C279.458 65.4267 278.965 64.12 278.858 62.68H285.618C285.698 63.4533 286.058 64.08 286.698 64.56C287.338 65.04 288.125 65.28 289.058 65.28C289.911 65.28 290.565 65.12 291.018 64.8C291.498 64.4533 291.738 64.0133 291.738 63.48C291.738 62.84 291.405 62.3733 290.738 62.08C290.071 61.76 288.991 61.4133 287.498 61.04C285.898 60.6667 284.565 60.28 283.498 59.88C282.431 59.4533 281.511 58.8 280.738 57.92C279.965 57.0133 279.578 55.8 279.578 54.28C279.578 53 279.925 51.84 280.618 50.8C281.338 49.7333 282.378 48.8933 283.738 48.28C285.125 47.6667 286.765 47.36 288.658 47.36C291.458 47.36 293.658 48.0533 295.258 49.44C296.885 50.8267 297.818 52.6667 298.058 54.96H291.738C291.631 54.1867 291.285 53.5733 290.698 53.12C290.138 52.6667 289.391 52.44 288.458 52.44C287.658 52.44 287.045 52.6 286.618 52.92C286.191 53.2133 285.978 53.6267 285.978 54.16C285.978 54.8 286.311 55.28 286.978 55.6C287.671 55.92 288.738 56.24 290.178 56.56C291.831 56.9867 293.178 57.4133 294.218 57.84C295.258 58.24 296.165 58.9067 296.938 59.84C297.738 60.7467 298.151 61.9733 298.178 63.52C298.178 64.8267 297.805 66 297.058 67.04C296.338 68.0533 295.285 68.8533 293.898 69.44C292.538 70.0267 290.951 70.32 289.138 70.32ZM319.919 70.32C317.973 70.32 316.239 69.9867 314.719 69.32C313.199 68.6533 311.999 67.7467 311.119 66.6C310.239 65.4267 309.746 64.12 309.639 62.68H316.399C316.479 63.4533 316.839 64.08 317.479 64.56C318.119 65.04 318.906 65.28 319.839 65.28C320.693 65.28 321.346 65.12 321.799 64.8C322.279 64.4533 322.519 64.0133 322.519 63.48C322.519 62.84 322.186 62.3733 321.519 62.08C320.853 61.76 319.773 61.4133 318.279 61.04C316.679 60.6667 315.346 60.28 314.279 59.88C313.213 59.4533 312.293 58.8 311.519 57.92C310.746 57.0133 310.359 55.8 310.359 54.28C310.359 53 310.706 51.84 311.399 50.8C312.119 49.7333 313.159 48.8933 314.519 48.28C315.906 47.6667 317.546 47.36 319.439 47.36C322.239 47.36 324.439 48.0533 326.039 49.44C327.666 50.8267 328.599 52.6667 328.839 54.96H322.519C322.413 54.1867 322.066 53.5733 321.479 53.12C320.919 52.6667 320.173 52.44 319.239 52.44C318.439 52.44 317.826 52.6 317.399 52.92C316.973 53.2133 316.759 53.6267 316.759 54.16C316.759 54.8 317.093 55.28 317.759 55.6C318.453 55.92 319.519 56.24 320.959 56.56C322.613 56.9867 323.959 57.4133 324.999 57.84C326.039 58.24 326.946 58.9067 327.719 59.84C328.519 60.7467 328.933 61.9733 328.959 63.52C328.959 64.8267 328.586 66 327.839 67.04C327.119 68.0533 326.066 68.8533 324.679 69.44C323.319 70.0267 321.733 70.32 319.919 70.32ZM331.784 58.8C331.784 56.5067 332.211 54.4933 333.064 52.76C333.944 51.0267 335.131 49.6933 336.624 48.76C338.117 47.8267 339.784 47.36 341.624 47.36C343.197 47.36 344.571 47.68 345.744 48.32C346.944 48.96 347.864 49.8 348.504 50.84V47.68H355.344V70H348.504V66.84C347.837 67.88 346.904 68.72 345.704 69.36C344.531 70 343.157 70.32 341.584 70.32C339.771 70.32 338.117 69.8533 336.624 68.92C335.131 67.96 333.944 66.6133 333.064 64.88C332.211 63.12 331.784 61.0933 331.784 58.8ZM348.504 58.84C348.504 57.1333 348.024 55.7867 347.064 54.8C346.131 53.8133 344.984 53.32 343.624 53.32C342.264 53.32 341.104 53.8133 340.144 54.8C339.211 55.76 338.744 57.0933 338.744 58.8C338.744 60.5067 339.211 61.8667 340.144 62.88C341.104 63.8667 342.264 64.36 343.624 64.36C344.984 64.36 346.131 63.8667 347.064 62.88C348.024 61.8933 348.504 60.5467 348.504 58.84ZM367.133 40.4V70H360.293V40.4H367.133ZM370.729 58.8C370.729 56.5067 371.156 54.4933 372.009 52.76C372.889 51.0267 374.076 49.6933 375.569 48.76C377.063 47.8267 378.729 47.36 380.569 47.36C382.143 47.36 383.516 47.68 384.689 48.32C385.889 48.96 386.809 49.8 387.449 50.84V47.68H394.289V70H387.449V66.84C386.783 67.88 385.849 68.72 384.649 69.36C383.476 70 382.103 70.32 380.529 70.32C378.716 70.32 377.063 69.8533 375.569 68.92C374.076 67.96 372.889 66.6133 372.009 64.88C371.156 63.12 370.729 61.0933 370.729 58.8ZM387.449 58.84C387.449 57.1333 386.969 55.7867 386.009 54.8C385.076 53.8133 383.929 53.32 382.569 53.32C381.209 53.32 380.049 53.8133 379.089 54.8C378.156 55.76 377.689 57.0933 377.689 58.8C377.689 60.5067 378.156 61.8667 379.089 62.88C380.049 63.8667 381.209 64.36 382.569 64.36C383.929 64.36 385.076 63.8667 386.009 62.88C386.969 61.8933 387.449 60.5467 387.449 58.84ZM397.878 58.8C397.878 56.5067 398.304 54.4933 399.158 52.76C400.038 51.0267 401.224 49.6933 402.718 48.76C404.211 47.8267 405.878 47.36 407.718 47.36C409.184 47.36 410.518 47.6667 411.718 48.28C412.944 48.8933 413.904 49.72 414.598 50.76V40.4H421.438V70H414.598V66.8C413.958 67.8667 413.038 68.72 411.838 69.36C410.664 70 409.291 70.32 407.718 70.32C405.878 70.32 404.211 69.8533 402.718 68.92C401.224 67.96 400.038 66.6133 399.158 64.88C398.304 63.12 397.878 61.0933 397.878 58.8ZM414.598 58.84C414.598 57.1333 414.118 55.7867 413.158 54.8C412.224 53.8133 411.078 53.32 409.718 53.32C408.358 53.32 407.198 53.8133 406.238 54.8C405.304 55.76 404.838 57.0933 404.838 58.8C404.838 60.5067 405.304 61.8667 406.238 62.88C407.198 63.8667 408.358 64.36 409.718 64.36C411.078 64.36 412.224 63.8667 413.158 62.88C414.118 61.8933 414.598 60.5467 414.598 58.84ZM34.52 98.68L28.48 121H20.92L17.4 106.52L13.76 121H6.24L0.16 98.68H7L10.16 114.64L13.92 98.68H21.16L24.96 114.56L28.08 98.68H34.52ZM40.5684 96.36C39.3684 96.36 38.3818 96.0133 37.6084 95.32C36.8618 94.6 36.4884 93.72 36.4884 92.68C36.4884 91.6133 36.8618 90.7333 37.6084 90.04C38.3818 89.32 39.3684 88.96 40.5684 88.96C41.7418 88.96 42.7018 89.32 43.4484 90.04C44.2218 90.7333 44.6084 91.6133 44.6084 92.68C44.6084 93.72 44.2218 94.6 43.4484 95.32C42.7018 96.0133 41.7418 96.36 40.5684 96.36ZM43.9684 98.68V121H37.1284V98.68H43.9684ZM61.3653 115.2V121H57.8853C55.4053 121 53.472 120.4 52.0853 119.2C50.6986 117.973 50.0053 115.987 50.0053 113.24V104.36H47.2853V98.68H50.0053V93.24H56.8453V98.68H61.3253V104.36H56.8453V113.32C56.8453 113.987 57.0053 114.467 57.3253 114.76C57.6453 115.053 58.1786 115.2 58.9253 115.2H61.3653ZM78.8953 98.44C81.4553 98.44 83.5086 99.2933 85.0553 101C86.602 102.68 87.3753 105 87.3753 107.96V121H80.5753V108.88C80.5753 107.387 80.1886 106.227 79.4153 105.4C78.642 104.573 77.602 104.16 76.2953 104.16C74.9886 104.16 73.9486 104.573 73.1753 105.4C72.402 106.227 72.0153 107.387 72.0153 108.88V121H65.1753V91.4H72.0153V101.68C72.7086 100.693 73.6553 99.9067 74.8553 99.32C76.0553 98.7333 77.402 98.44 78.8953 98.44ZM99.245 109.84C99.245 107.52 99.7117 105.493 100.645 103.76C101.605 102.027 102.925 100.693 104.605 99.76C106.312 98.8267 108.258 98.36 110.445 98.36C113.245 98.36 115.578 99.0933 117.445 100.56C119.338 102.027 120.578 104.093 121.165 106.76H113.885C113.272 105.053 112.085 104.2 110.325 104.2C109.072 104.2 108.072 104.693 107.325 105.68C106.578 106.64 106.205 108.027 106.205 109.84C106.205 111.653 106.578 113.053 107.325 114.04C108.072 115 109.072 115.48 110.325 115.48C112.085 115.48 113.272 114.627 113.885 112.92H121.165C120.578 115.533 119.338 117.587 117.445 119.08C115.552 120.573 113.218 121.32 110.445 121.32C108.258 121.32 106.312 120.853 104.605 119.92C102.925 118.987 101.605 117.653 100.645 115.92C99.7117 114.187 99.245 112.16 99.245 109.84ZM138.544 98.44C141.104 98.44 143.157 99.2933 144.704 101C146.25 102.68 147.024 105 147.024 107.96V121H140.224V108.88C140.224 107.387 139.837 106.227 139.064 105.4C138.29 104.573 137.25 104.16 135.944 104.16C134.637 104.16 133.597 104.573 132.824 105.4C132.05 106.227 131.664 107.387 131.664 108.88V121H124.824V91.4H131.664V101.68C132.357 100.693 133.304 99.9067 134.504 99.32C135.704 98.7333 137.05 98.44 138.544 98.44ZM172.817 109.48C172.817 110.12 172.777 110.787 172.697 111.48H157.217C157.324 112.867 157.764 113.933 158.537 114.68C159.337 115.4 160.31 115.76 161.457 115.76C163.164 115.76 164.35 115.04 165.017 113.6H172.297C171.924 115.067 171.244 116.387 170.257 117.56C169.297 118.733 168.084 119.653 166.617 120.32C165.15 120.987 163.51 121.32 161.697 121.32C159.51 121.32 157.564 120.853 155.857 119.92C154.15 118.987 152.817 117.653 151.857 115.92C150.897 114.187 150.417 112.16 150.417 109.84C150.417 107.52 150.884 105.493 151.817 103.76C152.777 102.027 154.11 100.693 155.817 99.76C157.524 98.8267 159.484 98.36 161.697 98.36C163.857 98.36 165.777 98.8133 167.457 99.72C169.137 100.627 170.444 101.92 171.377 103.6C172.337 105.28 172.817 107.24 172.817 109.48ZM165.817 107.68C165.817 106.507 165.417 105.573 164.617 104.88C163.817 104.187 162.817 103.84 161.617 103.84C160.47 103.84 159.497 104.173 158.697 104.84C157.924 105.507 157.444 106.453 157.257 107.68H165.817ZM197.465 109.48C197.465 110.12 197.425 110.787 197.345 111.48H181.865C181.972 112.867 182.412 113.933 183.185 114.68C183.985 115.4 184.959 115.76 186.105 115.76C187.812 115.76 188.999 115.04 189.665 113.6H196.945C196.572 115.067 195.892 116.387 194.905 117.56C193.945 118.733 192.732 119.653 191.265 120.32C189.799 120.987 188.159 121.32 186.345 121.32C184.159 121.32 182.212 120.853 180.505 119.92C178.799 118.987 177.465 117.653 176.505 115.92C175.545 114.187 175.065 112.16 175.065 109.84C175.065 107.52 175.532 105.493 176.465 103.76C177.425 102.027 178.759 100.693 180.465 99.76C182.172 98.8267 184.132 98.36 186.345 98.36C188.505 98.36 190.425 98.8133 192.105 99.72C193.785 100.627 195.092 101.92 196.025 103.6C196.985 105.28 197.465 107.24 197.465 109.48ZM190.465 107.68C190.465 106.507 190.065 105.573 189.265 104.88C188.465 104.187 187.465 103.84 186.265 103.84C185.119 103.84 184.145 104.173 183.345 104.84C182.572 105.507 182.092 106.453 181.905 107.68H190.465ZM210.154 121.32C208.207 121.32 206.474 120.987 204.954 120.32C203.434 119.653 202.234 118.747 201.354 117.6C200.474 116.427 199.98 115.12 199.874 113.68H206.634C206.714 114.453 207.074 115.08 207.714 115.56C208.354 116.04 209.14 116.28 210.074 116.28C210.927 116.28 211.58 116.12 212.034 115.8C212.514 115.453 212.754 115.013 212.754 114.48C212.754 113.84 212.42 113.373 211.754 113.08C211.087 112.76 210.007 112.413 208.514 112.04C206.914 111.667 205.58 111.28 204.514 110.88C203.447 110.453 202.527 109.8 201.754 108.92C200.98 108.013 200.594 106.8 200.594 105.28C200.594 104 200.94 102.84 201.634 101.8C202.354 100.733 203.394 99.8933 204.754 99.28C206.14 98.6667 207.78 98.36 209.674 98.36C212.474 98.36 214.674 99.0533 216.274 100.44C217.9 101.827 218.834 103.667 219.074 105.96H212.754C212.647 105.187 212.3 104.573 211.714 104.12C211.154 103.667 210.407 103.44 209.474 103.44C208.674 103.44 208.06 103.6 207.634 103.92C207.207 104.213 206.994 104.627 206.994 105.16C206.994 105.8 207.327 106.28 207.994 106.6C208.687 106.92 209.754 107.24 211.194 107.56C212.847 107.987 214.194 108.413 215.234 108.84C216.274 109.24 217.18 109.907 217.954 110.84C218.754 111.747 219.167 112.973 219.194 114.52C219.194 115.827 218.82 117 218.074 118.04C217.354 119.053 216.3 119.853 214.914 120.44C213.554 121.027 211.967 121.32 210.154 121.32ZM244.418 109.48C244.418 110.12 244.378 110.787 244.298 111.48H228.818C228.925 112.867 229.365 113.933 230.138 114.68C230.938 115.4 231.912 115.76 233.058 115.76C234.765 115.76 235.952 115.04 236.618 113.6H243.898C243.525 115.067 242.845 116.387 241.858 117.56C240.898 118.733 239.685 119.653 238.218 120.32C236.752 120.987 235.112 121.32 233.298 121.32C231.112 121.32 229.165 120.853 227.458 119.92C225.752 118.987 224.418 117.653 223.458 115.92C222.498 114.187 222.018 112.16 222.018 109.84C222.018 107.52 222.485 105.493 223.418 103.76C224.378 102.027 225.712 100.693 227.418 99.76C229.125 98.8267 231.085 98.36 233.298 98.36C235.458 98.36 237.378 98.8133 239.058 99.72C240.738 100.627 242.045 101.92 242.978 103.6C243.938 105.28 244.418 107.24 244.418 109.48ZM237.418 107.68C237.418 106.507 237.018 105.573 236.218 104.88C235.418 104.187 234.418 103.84 233.218 103.84C232.072 103.84 231.098 104.173 230.298 104.84C229.525 105.507 229.045 106.453 228.858 107.68H237.418Z" fill="white"/>
<path d="M12.576 6.32V8.552H8.136V23H5.4V8.552H0.936V6.32H12.576ZM18.0829 11.696C18.4829 11.024 19.0109 10.504 19.6669 10.136C20.3389 9.752 21.1309 9.56 22.0429 9.56V12.392H21.3469C20.2749 12.392 19.4589 12.664 18.8989 13.208C18.3549 13.752 18.0829 14.696 18.0829 16.04V23H15.3469V9.776H18.0829V11.696ZM36.6778 16.064C36.6778 16.56 36.6458 17.008 36.5818 17.408H26.4778C26.5578 18.464 26.9498 19.312 27.6538 19.952C28.3578 20.592 29.2218 20.912 30.2458 20.912C31.7178 20.912 32.7578 20.296 33.3658 19.064H36.3178C35.9178 20.28 35.1898 21.28 34.1338 22.064C33.0938 22.832 31.7978 23.216 30.2458 23.216C28.9818 23.216 27.8458 22.936 26.8378 22.376C25.8458 21.8 25.0618 21 24.4858 19.976C23.9258 18.936 23.6458 17.736 23.6458 16.376C23.6458 15.016 23.9178 13.824 24.4618 12.8C25.0218 11.76 25.7978 10.96 26.7898 10.4C27.7978 9.84 28.9498 9.56 30.2458 9.56C31.4938 9.56 32.6058 9.832 33.5818 10.376C34.5578 10.92 35.3178 11.688 35.8618 12.68C36.4058 13.656 36.6778 14.784 36.6778 16.064ZM33.8218 15.2C33.8058 14.192 33.4458 13.384 32.7418 12.776C32.0378 12.168 31.1658 11.864 30.1258 11.864C29.1818 11.864 28.3738 12.168 27.7018 12.776C27.0298 13.368 26.6298 14.176 26.5018 15.2H33.8218ZM46.0423 9.56C47.0823 9.56 48.0103 9.776 48.8263 10.208C49.6583 10.64 50.3063 11.28 50.7703 12.128C51.2343 12.976 51.4663 14 51.4663 15.2V23H48.7543V15.608C48.7543 14.424 48.4583 13.52 47.8663 12.896C47.2743 12.256 46.4663 11.936 45.4423 11.936C44.4183 11.936 43.6023 12.256 42.9943 12.896C42.4023 13.52 42.1063 14.424 42.1063 15.608V23H39.3703V9.776H42.1063V11.288C42.5543 10.744 43.1223 10.32 43.8103 10.016C44.5143 9.712 45.2583 9.56 46.0423 9.56ZM54.0443 16.328C54.0443 15 54.3163 13.824 54.8603 12.8C55.4203 11.776 56.1723 10.984 57.1163 10.424C58.0763 9.848 59.1403 9.56 60.3083 9.56C61.1723 9.56 62.0203 9.752 62.8523 10.136C63.7003 10.504 64.3723 11 64.8683 11.624V5.24H67.6283V23H64.8683V21.008C64.4203 21.648 63.7963 22.176 62.9963 22.592C62.2123 23.008 61.3083 23.216 60.2843 23.216C59.1323 23.216 58.0763 22.928 57.1163 22.352C56.1723 21.76 55.4203 20.944 54.8603 19.904C54.3163 18.848 54.0443 17.656 54.0443 16.328ZM64.8683 16.376C64.8683 15.464 64.6763 14.672 64.2923 14C63.9243 13.328 63.4363 12.816 62.8283 12.464C62.2203 12.112 61.5643 11.936 60.8603 11.936C60.1563 11.936 59.5003 12.112 58.8923 12.464C58.2843 12.8 57.7883 13.304 57.4043 13.976C57.0363 14.632 56.8523 15.416 56.8523 16.328C56.8523 17.24 57.0363 18.04 57.4043 18.728C57.7883 19.416 58.2843 19.944 58.8923 20.312C59.5163 20.664 60.1723 20.84 60.8603 20.84C61.5643 20.84 62.2203 20.664 62.8283 20.312C63.4363 19.96 63.9243 19.448 64.2923 18.776C64.6763 18.088 64.8683 17.288 64.8683 16.376ZM72.6139 8.024C72.1179 8.024 71.7019 7.856 71.3659 7.52C71.0299 7.184 70.8619 6.768 70.8619 6.272C70.8619 5.776 71.0299 5.36 71.3659 5.024C71.7019 4.688 72.1179 4.52 72.6139 4.52C73.0939 4.52 73.5019 4.688 73.8379 5.024C74.1739 5.36 74.3419 5.776 74.3419 6.272C74.3419 6.768 74.1739 7.184 73.8379 7.52C73.5019 7.856 73.0939 8.024 72.6139 8.024ZM73.9579 9.776V23H71.2219V9.776H73.9579ZM84.222 9.56C85.262 9.56 86.19 9.776 87.006 10.208C87.838 10.64 88.486 11.28 88.95 12.128C89.414 12.976 89.646 14 89.646 15.2V23H86.934V15.608C86.934 14.424 86.638 13.52 86.046 12.896C85.454 12.256 84.646 11.936 83.622 11.936C82.598 11.936 81.782 12.256 81.174 12.896C80.582 13.52 80.286 14.424 80.286 15.608V23H77.55V9.776H80.286V11.288C80.734 10.744 81.302 10.32 81.99 10.016C82.694 9.712 83.438 9.56 84.222 9.56ZM98.4639 9.56C99.4879 9.56 100.392 9.768 101.176 10.184C101.976 10.584 102.6 11.088 103.048 11.696V9.776H105.808V23.216C105.808 24.432 105.552 25.512 105.04 26.456C104.528 27.416 103.784 28.168 102.808 28.712C101.848 29.256 100.696 29.528 99.3519 29.528C97.5599 29.528 96.0719 29.104 94.8879 28.256C93.7039 27.424 93.0319 26.288 92.8719 24.848H95.5839C95.7919 25.536 96.2319 26.088 96.9039 26.504C97.5919 26.936 98.4079 27.152 99.3519 27.152C100.456 27.152 101.344 26.816 102.016 26.144C102.704 25.472 103.048 24.496 103.048 23.216V21.008C102.584 21.632 101.952 22.16 101.152 22.592C100.368 23.008 99.4719 23.216 98.4639 23.216C97.3119 23.216 96.2559 22.928 95.2959 22.352C94.3519 21.76 93.5999 20.944 93.0399 19.904C92.4959 18.848 92.2239 17.656 92.2239 16.328C92.2239 15 92.4959 13.824 93.0399 12.8C93.5999 11.776 94.3519 10.984 95.2959 10.424C96.2559 9.848 97.3119 9.56 98.4639 9.56ZM103.048 16.376C103.048 15.464 102.856 14.672 102.472 14C102.104 13.328 101.616 12.816 101.008 12.464C100.4 12.112 99.7439 11.936 99.0399 11.936C98.3359 11.936 97.6799 12.112 97.0719 12.464C96.4639 12.8 95.9679 13.304 95.5839 13.976C95.2159 14.632 95.0319 15.416 95.0319 16.328C95.0319 17.24 95.2159 18.04 95.5839 18.728C95.9679 19.416 96.4639 19.944 97.0719 20.312C97.6959 20.664 98.3519 20.84 99.0399 20.84C99.7439 20.84 100.4 20.664 101.008 20.312C101.616 19.96 102.104 19.448 102.472 18.776C102.856 18.088 103.048 17.288 103.048 16.376ZM122.308 9.56C123.348 9.56 124.276 9.776 125.092 10.208C125.924 10.64 126.572 11.28 127.036 12.128C127.5 12.976 127.732 14 127.732 15.2V23H125.02V15.608C125.02 14.424 124.724 13.52 124.132 12.896C123.54 12.256 122.732 11.936 121.708 11.936C120.684 11.936 119.868 12.256 119.26 12.896C118.668 13.52 118.372 14.424 118.372 15.608V23H115.636V9.776H118.372V11.288C118.82 10.744 119.388 10.32 120.076 10.016C120.78 9.712 121.524 9.56 122.308 9.56ZM136.958 23.216C135.71 23.216 134.582 22.936 133.574 22.376C132.566 21.8 131.774 21 131.198 19.976C130.622 18.936 130.334 17.736 130.334 16.376C130.334 15.032 130.63 13.84 131.222 12.8C131.814 11.76 132.622 10.96 133.646 10.4C134.67 9.84 135.814 9.56 137.078 9.56C138.342 9.56 139.486 9.84 140.51 10.4C141.534 10.96 142.342 11.76 142.934 12.8C143.526 13.84 143.822 15.032 143.822 16.376C143.822 17.72 143.518 18.912 142.91 19.952C142.302 20.992 141.47 21.8 140.414 22.376C139.374 22.936 138.222 23.216 136.958 23.216ZM136.958 20.84C137.662 20.84 138.318 20.672 138.926 20.336C139.55 20 140.054 19.496 140.438 18.824C140.822 18.152 141.014 17.336 141.014 16.376C141.014 15.416 140.83 14.608 140.462 13.952C140.094 13.28 139.606 12.776 138.998 12.44C138.39 12.104 137.734 11.936 137.03 11.936C136.326 11.936 135.67 12.104 135.062 12.44C134.47 12.776 133.998 13.28 133.646 13.952C133.294 14.608 133.118 15.416 133.118 16.376C133.118 17.8 133.478 18.904 134.198 19.688C134.934 20.456 135.854 20.84 136.958 20.84ZM164.287 9.776L160.183 23H157.303L154.639 13.232L151.975 23H149.095L144.967 9.776H147.751L150.511 20.408L153.319 9.776H156.175L158.863 20.36L161.599 9.776H164.287Z" fill="#DC582A"/>
<path d="M8.94 154.86C9.68667 154.993 10.32 155.387 10.84 156.04C11.36 156.693 11.62 157.433 11.62 158.26C11.62 158.967 11.4333 159.607 11.06 160.18C10.7 160.74 10.1733 161.187 9.48 161.52C8.78667 161.84 7.98 162 7.06 162H1.5V148.1H6.8C7.74667 148.1 8.56 148.26 9.24 148.58C9.92 148.9 10.4333 149.333 10.78 149.88C11.1267 150.413 11.3 151.013 11.3 151.68C11.3 152.48 11.0867 153.147 10.66 153.68C10.2333 154.213 9.66 154.607 8.94 154.86ZM3.78 153.94H6.6C7.34667 153.94 7.92667 153.773 8.34 153.44C8.76667 153.093 8.98 152.6 8.98 151.96C8.98 151.333 8.76667 150.847 8.34 150.5C7.92667 150.14 7.34667 149.96 6.6 149.96H3.78V153.94ZM6.86 160.14C7.63333 160.14 8.24 159.953 8.68 159.58C9.12 159.207 9.34 158.687 9.34 158.02C9.34 157.34 9.10667 156.8 8.64 156.4C8.17333 156 7.55333 155.8 6.78 155.8H3.78V160.14H6.86ZM24.0177 150.98L17.2577 167.18H14.8977L17.1377 161.82L12.7977 150.98H15.3377L18.4377 159.38L21.6577 150.98H24.0177ZM38.5136 148.1V158.12C38.5136 159.36 38.1336 160.34 37.3736 161.06C36.6269 161.78 35.6403 162.14 34.4136 162.14C33.1869 162.14 32.1936 161.78 31.4336 161.06C30.6869 160.34 30.3136 159.36 30.3136 158.12H32.6136C32.6269 158.733 32.7803 159.22 33.0736 159.58C33.3803 159.94 33.8269 160.12 34.4136 160.12C35.0003 160.12 35.4469 159.94 35.7536 159.58C36.0603 159.207 36.2136 158.72 36.2136 158.12V148.1H38.5136ZM47.0027 162.18C45.9627 162.18 45.0227 161.947 44.1827 161.48C43.3427 161 42.6827 160.333 42.2027 159.48C41.7227 158.613 41.4827 157.613 41.4827 156.48C41.4827 155.36 41.7293 154.367 42.2227 153.5C42.716 152.633 43.3893 151.967 44.2427 151.5C45.096 151.033 46.0493 150.8 47.1027 150.8C48.156 150.8 49.1093 151.033 49.9627 151.5C50.816 151.967 51.4893 152.633 51.9827 153.5C52.476 154.367 52.7227 155.36 52.7227 156.48C52.7227 157.6 52.4693 158.593 51.9627 159.46C51.456 160.327 50.7627 161 49.8827 161.48C49.016 161.947 48.056 162.18 47.0027 162.18ZM47.0027 160.2C47.5893 160.2 48.136 160.06 48.6427 159.78C49.1627 159.5 49.5827 159.08 49.9027 158.52C50.2227 157.96 50.3827 157.28 50.3827 156.48C50.3827 155.68 50.2293 155.007 49.9227 154.46C49.616 153.9 49.2093 153.48 48.7027 153.2C48.196 152.92 47.6493 152.78 47.0627 152.78C46.476 152.78 45.9293 152.92 45.4227 153.2C44.9293 153.48 44.536 153.9 44.2427 154.46C43.9493 155.007 43.8027 155.68 43.8027 156.48C43.8027 157.667 44.1027 158.587 44.7027 159.24C45.316 159.88 46.0827 160.2 47.0027 160.2ZM60.6766 150.8C61.5166 150.8 62.2632 150.98 62.9166 151.34C63.5832 151.7 64.1032 152.233 64.4766 152.94C64.8632 153.647 65.0566 154.5 65.0566 155.5V162H62.7966V155.84C62.7966 154.853 62.5499 154.1 62.0566 153.58C61.5632 153.047 60.8899 152.78 60.0366 152.78C59.1832 152.78 58.5032 153.047 57.9966 153.58C57.5032 154.1 57.2566 154.853 57.2566 155.84V162H54.9766V147.2H57.2566V152.26C57.6432 151.793 58.1299 151.433 58.7166 151.18C59.3166 150.927 59.9699 150.8 60.6766 150.8ZM73.5248 150.8C74.3915 150.8 75.1648 150.98 75.8448 151.34C76.5382 151.7 77.0782 152.233 77.4648 152.94C77.8515 153.647 78.0448 154.5 78.0448 155.5V162H75.7848V155.84C75.7848 154.853 75.5382 154.1 75.0448 153.58C74.5515 153.047 73.8782 152.78 73.0248 152.78C72.1715 152.78 71.4915 153.047 70.9848 153.58C70.4915 154.1 70.2448 154.853 70.2448 155.84V162H67.9648V150.98H70.2448V152.24C70.6182 151.787 71.0915 151.433 71.6648 151.18C72.2515 150.927 72.8715 150.8 73.5248 150.8ZM100.788 148.1V162H98.5084V152.48L94.2684 162H92.6884L88.4284 152.48V162H86.1484V148.1H88.6084L93.4884 159L98.3484 148.1H100.788ZM104.945 149.52C104.532 149.52 104.185 149.38 103.905 149.1C103.625 148.82 103.485 148.473 103.485 148.06C103.485 147.647 103.625 147.3 103.905 147.02C104.185 146.74 104.532 146.6 104.945 146.6C105.345 146.6 105.685 146.74 105.965 147.02C106.245 147.3 106.385 147.647 106.385 148.06C106.385 148.473 106.245 148.82 105.965 149.1C105.685 149.38 105.345 149.52 104.945 149.52ZM106.065 150.98V162H103.785V150.98H106.065ZM113.419 156.5L118.499 162H115.419L111.339 157.26V162H109.059V147.2H111.339V155.8L115.339 150.98H118.499L113.419 156.5ZM130.233 156.22C130.233 156.633 130.206 157.007 130.153 157.34H121.733C121.799 158.22 122.126 158.927 122.713 159.46C123.299 159.993 124.019 160.26 124.873 160.26C126.099 160.26 126.966 159.747 127.473 158.72H129.933C129.599 159.733 128.993 160.567 128.113 161.22C127.246 161.86 126.166 162.18 124.873 162.18C123.819 162.18 122.873 161.947 122.033 161.48C121.206 161 120.553 160.333 120.073 159.48C119.606 158.613 119.373 157.613 119.373 156.48C119.373 155.347 119.599 154.353 120.053 153.5C120.519 152.633 121.166 151.967 121.993 151.5C122.833 151.033 123.793 150.8 124.873 150.8C125.913 150.8 126.839 151.027 127.653 151.48C128.466 151.933 129.099 152.573 129.553 153.4C130.006 154.213 130.233 155.153 130.233 156.22ZM127.853 155.5C127.839 154.66 127.539 153.987 126.953 153.48C126.366 152.973 125.639 152.72 124.773 152.72C123.986 152.72 123.313 152.973 122.753 153.48C122.193 153.973 121.859 154.647 121.753 155.5H127.853Z" fill="white"/>
</svg>
