<svg width="55" height="42" viewBox="0 0 55 42" fill="none" xmlns="http://www.w3.org/2000/svg">
<path d="M0 0H51C52.8856 0 53.8284 0 54.4142 0.585786C55 1.17157 55 2.11438 55 4V38C55 39.8856 55 40.8284 54.4142 41.4142C53.8284 42 52.8856 42 51 42H0V0Z" fill="#509E2F"/>
<path fill-rule="evenodd" clip-rule="evenodd" d="M26.5 13C22.634 13 19.5 16.134 19.5 20C19.5 23.866 22.634 27 26.5 27C30.366 27 33.5 23.866 33.5 20C33.5 16.134 30.366 13 26.5 13ZM17.5 20C17.5 15.0294 21.5294 11 26.5 11C31.4706 11 35.5 15.0294 35.5 20C35.5 24.9706 31.4706 29 26.5 29C21.5294 29 17.5 24.9706 17.5 20Z" fill="white"/>
<path fill-rule="evenodd" clip-rule="evenodd" d="M31.4429 24.9429C31.8334 24.5524 32.4666 24.5524 32.8571 24.9429L37.2071 29.2929C37.5977 29.6834 37.5977 30.3166 37.2071 30.7071C36.8166 31.0977 36.1834 31.0977 35.7929 30.7071L31.4429 26.3571C31.0524 25.9666 31.0524 25.3334 31.4429 24.9429Z" fill="white"/>
</svg>
